<?xml version="1.0" encoding="UTF-8"?>
<svg version="1.1" xmlns="http://www.w3.org/2000/svg" width="45" height="45">
<path d="M0 0 C3.28857706 0.60521485 5.22023119 1.7270699 7.8125 3.8125 C8.51246094 4.34488281 9.21242188 4.87726562 9.93359375 5.42578125 C11.20357645 6.39327279 12.4679698 7.36822113 13.72265625 8.35546875 C16.23519753 10.09583422 18.30779065 11.03864551 21.37890625 10.8671875 C23.96885694 10.36896798 26.46483988 9.72545795 29 9 C30.54084411 8.6216344 32.08243961 8.24630657 33.625 7.875 C34.73875 7.58625 35.8525 7.2975 37 7 C36.67 8.65 36.34 10.3 36 12 C35.34 12 34.68 12 34 12 C33.67 12.99 33.34 13.98 33 15 C31.35 15.33 29.7 15.66 28 16 C28.99 18.31 29.98 20.62 31 23 C30.01 23.33 29.02 23.66 28 24 C28.7734375 24.99 28.7734375 24.99 29.5625 26 C31.11107398 29.23180657 31.37739365 31.45679057 30.7734375 35 C28.99472983 39.59948649 24.88469854 42.13013914 20.5625 44.125 C16.48484773 43.92609013 13.34052914 42.28486409 10 40 C7.62073216 37.17461944 7.06151378 35.60283501 6.6875 31.9375 C6.98888551 29.10447618 7.52099094 27.40338972 9 25 C6.525 24.01 6.525 24.01 4 23 C4 21.68 4 20.36 4 19 C5.32 18.34 6.64 17.68 8 17 C8 16.34 8 15.68 8 15 C7.01 15 6.02 15 5 15 C5 14.34 5 13.68 5 13 C4.34 13 3.68 13 3 13 C3 12.01 3 11.02 3 10 C2.01 9.67 1.02 9.34 0 9 C-1.125 2.25 -1.125 2.25 0 0 Z M13 11 C13.66 12.32 14.32 13.64 15 15 C15.66 15 16.32 15 17 15 C16.34 13.68 15.68 12.36 15 11 C14.34 11 13.68 11 13 11 Z M18 15 C18.99 15.495 18.99 15.495 20 16 C20 16.66 20 17.32 20 18 C21.83284443 19.12516085 21.83284443 19.12516085 24 20 C24.99 19.67 25.98 19.34 27 19 C26.34 18.34 25.68 17.68 25 17 C23.68 17 22.36 17 21 17 C21 16.34 21 15.68 21 15 C20.01 15 19.02 15 18 15 Z M14 17 C13.34 17.66 12.68 18.32 12 19 C14.31 19.33 16.62 19.66 19 20 C19.33 19.34 19.66 18.68 20 18 C17.09926819 17.32198966 17.09926819 17.32198966 14 17 Z M25 22 C25.33 22.66 25.66 23.32 26 24 C26.66 23.67 27.32 23.34 28 23 C27.01 22.67 26.02 22.34 25 22 Z M18 29 C19 31 19 31 19 31 Z M17 34 C17.33 35.98 17.66 37.96 18 40 C19.32 38.35 20.64 36.7 22 35 C20.35 34.67 18.7 34.34 17 34 Z " fill="#A8453C" transform="translate(5,0)"/>
<path d="M0 0 C2 2 2 2 2.0625 5.75 C1.38903885 10.20458036 -0.63842 12.21137006 -4.14453125 14.87890625 C-6.39972695 16.24151923 -8.36985587 16.84059733 -11 17 C-11.33 16.01 -11.66 15.02 -12 14 C-12.66 13.67 -13.32 13.34 -14 13 C-14 10.03 -14 7.06 -14 4 C-10.23375329 2.74458443 -8.62811066 3.62938042 -5 5 C-5.33 5.99 -5.66 6.98 -6 8 C-7.65 8 -9.3 8 -11 8 C-11 8.99 -11 9.98 -11 11 C-10.4225 10.67 -9.845 10.34 -9.25 10 C-7 9 -7 9 -3 9 C-3 8.34 -3 7.68 -3 7 C-2.01 7 -1.02 7 0 7 C-0.185625 6.401875 -0.37125 5.80375 -0.5625 5.1875 C-1 3 -1 3 0 0 Z " fill="#A84741" transform="translate(34,27)"/>
<path d="M0 0 C0.33 0.99 0.66 1.98 1 3 C0.67 3.66 0.34 4.32 0 5 C-0.66 5 -1.32 5 -2 5 C-2.33 5.99 -2.66 6.98 -3 8 C-4.65 8.33 -6.3 8.66 -8 9 C-7.01 11.31 -6.02 13.62 -5 16 C-8.11257569 16 -10.10765685 15.82638376 -13 15 C-12.01 14.01 -11.02 13.02 -10 12 C-10.66 10.68 -11.32 9.36 -12 8 C-12.66 8 -13.32 8 -14 8 C-14 7.34 -14 6.68 -14 6 C-14.66 5.67 -15.32 5.34 -16 5 C-10.69905784 3.19695845 -5.39691512 1.49276376 0 0 Z " fill="#A95146" transform="translate(41,7)"/>
<path d="M0 0 C7.15542522 1.52492669 7.15542522 1.52492669 10 3.125 C11.69341671 6.30015633 11.17444053 9.4530426 11 13 C10.01 13 9.02 13 8 13 C8 13.66 8 14.32 8 15 C6.68 15.33 5.36 15.66 4 16 C4.33 14.35 4.66 12.7 5 11 C3.68 10.67 2.36 10.34 1 10 C0.67 8.02 0.34 6.04 0 4 C1.32 4.33 2.64 4.66 4 5 C3.01 6.485 3.01 6.485 2 8 C3.32 7.67 4.64 7.34 6 7 C6 7.66 6 8.32 6 9 C6.99 9 7.98 9 9 9 C8.34 7.02 7.68 5.04 7 3 C5.02 3 3.04 3 1 3 C0.67 2.01 0.34 1.02 0 0 Z " fill="#A8372E" transform="translate(23,21)"/>
<path d="M0 0 C1.27208622 0.62244599 2.54261882 1.24806767 3.8125 1.875 C4.52019531 2.22304687 5.22789063 2.57109375 5.95703125 2.9296875 C8 4 8 4 11 6 C11 6.66 11 7.32 11 8 C11.66 8 12.32 8 13 8 C13 8.66 13 9.32 13 10 C12.01 10 11.02 10 10 10 C9.67 10.33 9.34 10.66 9 11 C6.66702567 11.04092937 4.33294775 11.04241723 2 11 C2 10.34 2 9.68 2 9 C1.34 9 0.68 9 0 9 C-1.125 2.25 -1.125 2.25 0 0 Z M2 4 C2.66 5.32 3.32 6.64 4 8 C4.66 8 5.32 8 6 8 C5.34 6.68 4.68 5.36 4 4 C3.34 4 2.68 4 2 4 Z " fill="#A24439" transform="translate(16,7)"/>
<path d="M0 0 C0.99 0 1.98 0 3 0 C2.98839844 0.75925781 2.97679687 1.51851562 2.96484375 2.30078125 C2.95582031 3.29464844 2.94679688 4.28851563 2.9375 5.3125 C2.92589844 6.29863281 2.91429687 7.28476562 2.90234375 8.30078125 C2.87670138 11.09963849 2.87670138 11.09963849 4 14 C0.75777151 13.13540574 -1.50112677 12.48278055 -3.9375 10.125 C-5 8 -5 8 -4.6875 5.75 C-4.3471875 4.88375 -4.3471875 4.88375 -4 4 C-3.34 4 -2.68 4 -2 4 C-1.34 2.68 -0.68 1.36 0 0 Z " fill="#A83A31" transform="translate(18,29)"/>
<path d="M0 0 C0 1.32 0 2.64 0 4 C0.87829954 5.87956235 0.87829954 5.87956235 2.0625 7.625 C2.701875 8.73875 3.34125 9.8525 4 11 C3.67 11.66 3.34 12.32 3 13 C0.69 12.34 -1.62 11.68 -4 11 C-3.01 10.01 -2.02 9.02 -1 8 C-1.66 6.68 -2.32 5.36 -3 4 C-3.66 4 -4.32 4 -5 4 C-5 3.34 -5 2.68 -5 2 C-5.66 1.67 -6.32 1.34 -7 1 C-4.53721199 -0.231394 -2.7204945 -0.07159196 0 0 Z " fill="#A76255" transform="translate(32,11)"/>
<path d="M0 0 C6.75 0.75 6.75 0.75 9 3 C9 4.32 9 5.64 9 7 C8.01 7.33 7.02 7.66 6 8 C6 7.34 6 6.68 6 6 C5.01 6 4.02 6 3 6 C3 5.34 3 4.68 3 4 C2.34 4 1.68 4 1 4 C0.67 2.68 0.34 1.36 0 0 Z " fill="#A4362C" transform="translate(7,9)"/>
<path d="M0 0 C1.98 0.495 1.98 0.495 4 1 C4.12375 1.78375 4.2475 2.5675 4.375 3.375 C4.79117993 6.14057822 4.79117993 6.14057822 7 8 C3.62537285 7.45276317 1.91765 6.9451 -1 5 C-0.67 3.35 -0.34 1.7 0 0 Z " fill="#A23832" transform="translate(5,0)"/>
<path d="M0 0 C2.31 0.66 4.62 1.32 7 2 C6.67 2.99 6.34 3.98 6 5 C3.69 4.67 1.38 4.34 -1 4 C-0.67 2.68 -0.34 1.36 0 0 Z " fill="#363448" transform="translate(22,30)"/>
<path d="M0 0 C1.32 0 2.64 0 4 0 C3.67 1.32 3.34 2.64 3 4 C1.68 4 0.36 4 -1 4 C-1.33 4.66 -1.66 5.32 -2 6 C-2.33 5.01 -2.66 4.02 -3 3 C-2.34 3 -1.68 3 -1 3 C-0.67 2.01 -0.34 1.02 0 0 Z " fill="#A8332A" transform="translate(18,22)"/>
<path d="M0 0 C2.97 0.495 2.97 0.495 6 1 C6.33 2.32 6.66 3.64 7 5 C4.69 5 2.38 5 0 5 C0 3.35 0 1.7 0 0 Z " fill="#A65649" transform="translate(18,13)"/>
<path d="M0 0 C1.98 0 3.96 0 6 0 C6.33 0.99 6.66 1.98 7 3 C3.88742431 3 1.89234315 2.82638376 -1 2 C-0.67 1.34 -0.34 0.68 0 0 Z " fill="#A65347" transform="translate(29,20)"/>
<path d="M0 0 C0 0.99 0 1.98 0 3 C-2.31 2.67 -4.62 2.34 -7 2 C-7 1.34 -7 0.68 -7 0 C-3.86650268 -1.04449911 -3.01031744 -0.93423645 0 0 Z " fill="#A8483D" transform="translate(32,27)"/>
</svg>
