<?xml version="1.0" encoding="UTF-8"?>
<svg version="1.1" xmlns="http://www.w3.org/2000/svg" width="175" height="75">
<path d="M0 0 C6.57120473 -0.41648481 11.4777966 2.93049977 16.4375 7 C19.50974897 9.39785286 22.72849711 10.88635961 26.23828125 12.5546875 C30.21599168 14.63637471 33.81622245 17.22082767 37.45703125 19.83984375 C39.94465827 21.30837677 39.94465827 21.30837677 42.484375 20.28125 C43.72960938 19.64703125 43.72960938 19.64703125 45 19 C52.56188479 16.84751119 60.27720127 15.25950514 67.96875 13.6484375 C70.3282444 13.1437003 72.66521597 12.60658605 75 12 C73.11898308 18.20735584 68.91930362 23.062241 63.4375 26.4375 C60.21174432 27.90375258 58.46493674 28.41999233 55 28 C55 28.66 55 29.32 55 30 C55.61875 30.268125 56.2375 30.53625 56.875 30.8125 C59 32 59 32 61 35 C61.125 37.6875 61.125 37.6875 61 40 C60.01 40.495 60.01 40.495 59 41 C56.5249829 39.88568235 54.32116581 38.41849022 52 37 C51.505 37.99 51.505 37.99 51 39 C52.0725 39.66 53.145 40.32 54.25 41 C58.32598781 43.9636001 60.8338663 47.03313422 62 52 C61.83928657 58.1165641 60.07067503 63.37923374 56 68 C49.8347475 72.14968918 42.59711708 75.93025923 35 75 C26.67977553 73.27374782 20.7767928 69.07841443 16 62.0625 C14.6740059 58.00164308 14.59248639 55.27889295 15 51 C16.4375 48.25 16.4375 48.25 18 46 C18.69579454 43.80869466 18.69579454 43.80869466 19 42 C18.4225 42.20625 17.845 42.4125 17.25 42.625 C14.48032433 43.08661261 13.35438733 42.42944945 11 41 C11 40.34 11 39.68 11 39 C10.01 38.67 9.02 38.34 8 38 C8 36.68 8 35.36 8 34 C11.3 32.68 14.6 31.36 18 30 C17.67 29.01 17.34 28.02 17 27 C13.49705129 25.28432339 13.49705129 25.28432339 10 24 C10 23.34 10 22.68 10 22 C8.68 21.67 7.36 21.34 6 21 C6.33 19.68 6.66 18.36 7 17 C5.35 16.67 3.7 16.34 2 16 C1.566875 14.6078125 1.566875 14.6078125 1.125 13.1875 C0.1125 9.90208333 0.1125 9.90208333 -2 7 C-2 5.68 -2 4.36 -2 3 C-1.34 3 -0.68 3 0 3 C0 2.01 0 1.02 0 0 Z " fill="#CA8D8A" transform="translate(5,0)"/>
<path d="M0 0 C6.57120473 -0.41648481 11.4777966 2.93049977 16.4375 7 C19.50974897 9.39785286 22.72849711 10.88635961 26.23828125 12.5546875 C30.21599168 14.63637471 33.81622245 17.22082767 37.45703125 19.83984375 C39.94465827 21.30837677 39.94465827 21.30837677 42.484375 20.28125 C43.72960938 19.64703125 43.72960938 19.64703125 45 19 C52.56188479 16.84751119 60.27720127 15.25950514 67.96875 13.6484375 C70.3282444 13.1437003 72.66521597 12.60658605 75 12 C73.11898308 18.20735584 68.91930362 23.062241 63.4375 26.4375 C60.21174432 27.90375258 58.46493674 28.41999233 55 28 C55 28.66 55 29.32 55 30 C55.61875 30.268125 56.2375 30.53625 56.875 30.8125 C59 32 59 32 61 35 C61.125 37.6875 61.125 37.6875 61 40 C60.01 40.495 60.01 40.495 59 41 C57.906875 40.34 56.81375 39.68 55.6875 39 C52.82646674 37.23153616 52.82646674 37.23153616 49.5 37.25 C48.675 37.4975 47.85 37.745 47 38 C44.66698014 38.03824623 42.33288492 38.04574284 40 38 C40 37.34 40 36.68 40 36 C41.98 35.34 43.96 34.68 46 34 C44.68 33.67 43.36 33.34 42 33 C41.505 33.99 41.505 33.99 41 35 C38.6859378 35.73075648 36.35171131 36.40138258 34 37 C34 36.01 34 35.02 34 34 C28.06 34.495 28.06 34.495 22 35 C23 30 23 30 25 28 C24.34 27.67 23.68 27.34 23 27 C22.67 27.99 22.34 28.98 22 30 C19.9375 30.6875 19.9375 30.6875 18 31 C17.979375 30.401875 17.95875 29.80375 17.9375 29.1875 C17.09543384 26.56685398 17.09543384 26.56685398 13.4375 25.25 C12.303125 24.8375 11.16875 24.425 10 24 C10 23.34 10 22.68 10 22 C8.68 21.67 7.36 21.34 6 21 C6.33 19.68 6.66 18.36 7 17 C5.35 16.67 3.7 16.34 2 16 C1.566875 14.6078125 1.566875 14.6078125 1.125 13.1875 C0.1125 9.90208333 0.1125 9.90208333 -2 7 C-2 5.68 -2 4.36 -2 3 C-1.34 3 -0.68 3 0 3 C0 2.01 0 1.02 0 0 Z " fill="#FAF5F4" transform="translate(5,0)"/>
<path d="M0 0 C3.96 0.33 7.92 0.66 12 1 C12 1.66 12 2.32 12 3 C10.02 3.99 10.02 3.99 8 5 C8 6.32 8 7.64 8 9 C8.598125 8.814375 9.19625 8.62875 9.8125 8.4375 C12 8 12 8 15 9 C15 6.36 15 3.72 15 1 C16.45742463 0.91903197 17.91612807 0.86082226 19.375 0.8125 C20.18710938 0.77769531 20.99921875 0.74289063 21.8359375 0.70703125 C22.55007812 0.80371094 23.26421875 0.90039062 24 1 C24.66 1.99 25.32 2.98 26 4 C27.3921875 3.7215625 27.3921875 3.7215625 28.8125 3.4375 C32 3 32 3 35 4 C37.33414529 3.67240066 39.66752239 3.33926947 42 3 C42.66 3.33 43.32 3.66 44 4 C46.09821215 3.60061233 46.09821215 3.60061233 48 3 C48 2.01 48 1.02 48 0 C50.4375 0.375 50.4375 0.375 53 1 C53.495 1.99 53.495 1.99 54 3 C54.84304687 3 55.68609375 3 56.5546875 3 C60.36979167 3 64.18489583 3 68 3 C68.70060547 2.99476318 69.40121094 2.98952637 70.12304688 2.98413086 C72.91535384 2.96338291 75.70764635 2.95041049 78.5 2.9375 C79.96373047 2.92493164 79.96373047 2.92493164 81.45703125 2.91210938 C82.38902344 2.90888672 83.32101563 2.90566406 84.28125 2.90234375 C85.13783203 2.89710693 85.99441406 2.89187012 86.87695312 2.88647461 C89 3 89 3 91 4 C90.125 10.875 90.125 10.875 89 12 C86.0625 12.1875 86.0625 12.1875 83 12 C82.01 11.01 82.01 11.01 81 10 C80.34 11.65 79.68 13.3 79 15 C77.68 15 76.36 15 75 15 C75 14.01 75 13.02 75 12 C74.37351562 12.03480469 73.74703125 12.06960937 73.1015625 12.10546875 C72.28429687 12.13253906 71.46703125 12.15960938 70.625 12.1875 C69.40683594 12.23970703 69.40683594 12.23970703 68.1640625 12.29296875 C67.44992188 12.19628906 66.73578125 12.09960938 66 12 C65.01 10.515 65.01 10.515 64 9 C63.34 9.99 62.68 10.98 62 12 C60.125 12.29296875 60.125 12.29296875 58 12.1875 C57.29875 12.16042969 56.5975 12.13335937 55.875 12.10546875 C55.25625 12.07066406 54.6375 12.03585938 54 12 C53.34 12 52.68 12 52 12 C33 12 14 12 -5 12 C-5 11.01 -5 10.02 -5 9 C-3.0625 8.4375 -3.0625 8.4375 -1 8 C-0.67 8.33 -0.34 8.66 0 9 C0 6.03 0 3.06 0 0 Z M20 3 C21 5 21 5 21 5 Z M24 5 C25 7 25 7 25 7 Z M79 5 C80 7 80 7 80 7 Z M29 6 C30 8 30 8 30 8 Z M42 6 C43 9 43 9 43 9 Z M47 6 C48 8 48 8 48 8 Z M52 6 C51.67 6.99 51.34 7.98 51 9 C51.99 9.495 51.99 9.495 53 10 C52.67 8.68 52.34 7.36 52 6 Z M74 6 C74.33 7.98 74.66 9.96 75 12 C75.33 12 75.66 12 76 12 C76 10.02 76 8.04 76 6 C75.34 6 74.68 6 74 6 Z M37 7 C38 9 38 9 38 9 Z " fill="#BE4845" transform="translate(81,49)"/>
<path d="M0 0 C6.57120473 -0.41648481 11.4777966 2.93049977 16.4375 7 C19.50974897 9.39785286 22.72849711 10.88635961 26.23828125 12.5546875 C30.21599168 14.63637471 33.81622245 17.22082767 37.45703125 19.83984375 C39.94465827 21.30837677 39.94465827 21.30837677 42.484375 20.28125 C43.72960938 19.64703125 43.72960938 19.64703125 45 19 C52.56188479 16.84751119 60.27720127 15.25950514 67.96875 13.6484375 C70.3282444 13.1437003 72.66521597 12.60658605 75 12 C73.52766989 16.85868937 71.04167482 20.91117582 67 24 C63.37007201 25.21338919 59.82458661 25.85001621 56 26 C55.34 25.67 54.68 25.34 54 25 C54.33 23.68 54.66 22.36 55 21 C55.66 21 56.32 21 57 21 C57 20.34 57 19.68 57 19 C53.04 19.99 49.08 20.98 45 22 C45.495 23.485 45.495 23.485 46 25 C42.7 24.67 39.4 24.34 36 24 C35.505 22.515 35.505 22.515 35 21 C33.27861696 19.79824453 33.27861696 19.79824453 31.1875 18.875 C30.50042969 18.54242187 29.81335938 18.20984375 29.10546875 17.8671875 C27.08300305 17.03418678 25.13306793 16.46975429 23 16 C23.33 16.99 23.66 17.98 24 19 C16.39776578 19.29239362 7.46632132 19.31088088 1 15 C0.61781233 13.34385343 0.28604898 11.67542976 0 10 C-0.66 9.01 -1.32 8.02 -2 7 C-2 5.68 -2 4.36 -2 3 C-1.34 3 -0.68 3 0 3 C0 2.01 0 1.02 0 0 Z " fill="#C7918C" transform="translate(5,0)"/>
<path d="M0 0 C0.99 0.33 1.98 0.66 3 1 C2.525625 1.4125 2.05125 1.825 1.5625 2.25 C-0.16266518 4.182185 -0.56584875 5.48192275 -1 8 C-0.505 7.835 -0.01 7.67 0.5 7.5 C4.03444089 6.79311182 7.39690701 6.93994845 11 7 C11 7.99 11 8.98 11 10 C11.78375 9.525625 12.5675 9.05125 13.375 8.5625 C14.88948678 7.66101977 16.4235897 6.78820515 18 6 C18 5.67 18 5.34 18 5 C19.65 5 21.3 5 23 5 C23 5.99 23 6.98 23 8 C21.02 8.33 19.04 8.66 17 9 C17 9.66 17 10.32 17 11 C19.31 11 21.62 11 24 11 C24.495 12.485 24.495 12.485 25 14 C22.36 14 19.72 14 17 14 C17.33 14.721875 17.66 15.44375 18 16.1875 C19.00603529 19.01697427 19.16977402 21.02895466 19 24 C20.65 23.67 22.3 23.34 24 23 C24 22.34 24 21.68 24 21 C24.66 21 25.32 21 26 21 C26 21.99 26 22.98 26 24 C25.01 24 24.02 24 23 24 C23 24.66 23 25.32 23 26 C23.66 26.33 24.32 26.66 25 27 C24.34 27 23.68 27 23 27 C23 28.32 23 29.64 23 31 C19.71303767 31.79953138 18.28976808 32.09658936 15 31 C15 30.01 15 29.02 15 28 C16.65 27.67 18.3 27.34 20 27 C19.01 26.34 18.02 25.68 17 25 C17 24.01 17 23.02 17 22 C16.34 22 15.68 22 15 22 C14.855625 21.38125 14.71125 20.7625 14.5625 20.125 C14.06847775 17.96741678 14.06847775 17.96741678 13 16 C13.66 16 14.32 16 15 16 C15 15.01 15 14.02 15 13 C14.01 13.33 13.02 13.66 12 14 C11.01 13.67 10.02 13.34 9 13 C9 13.66 9 14.32 9 15 C9.66 15 10.32 15 11 15 C11 16.32 11 17.64 11 19 C10.34 19 9.68 19 9 19 C9 18.34 9 17.68 9 17 C5.04 17.495 5.04 17.495 1 18 C1 18.66 1 19.32 1 20 C-0.6222454 21.70993434 -2.29413425 23.37347684 -4 25 C-4.598125 25.598125 -5.19625 26.19625 -5.8125 26.8125 C-6.204375 27.204375 -6.59625 27.59625 -7 28 C-6.45144652 23.428721 -5.58255197 19.32564205 -4 15 C-4.5775 15.20625 -5.155 15.4125 -5.75 15.625 C-8.51967567 16.08661261 -9.64561267 15.42944945 -12 14 C-12 13.34 -12 12.68 -12 12 C-12.99 11.67 -13.98 11.34 -15 11 C-15 9.68 -15 8.36 -15 7 C-14.00097656 6.66226563 -13.00195312 6.32453125 -11.97265625 5.9765625 C-10.66913783 5.52642664 -9.36575957 5.07588475 -8.0625 4.625 C-7.0734668 4.29242188 -7.0734668 4.29242188 -6.06445312 3.953125 C-2.32423336 2.87090848 -2.32423336 2.87090848 0 0 Z " fill="#B1443E" transform="translate(28,27)"/>
<path d="M0 0 C1.98 0 3.96 0 6 0 C5.79375 0.61875 5.5875 1.2375 5.375 1.875 C5.25125 2.57625 5.1275 3.2775 5 4 C5.66 4.66 6.32 5.32 7 6 C6.67 6.99 6.34 7.98 6 9 C6.66 9 7.32 9 8 9 C8.33 9.99 8.66 10.98 9 12 C11.00016466 13.20882096 11.00016466 13.20882096 13 14 C11.68 14.99 10.36 15.98 9 17 C9 16.34 9 15.68 9 15 C8.01 15 7.02 15 6 15 C6 15.99 6 16.98 6 18 C8.64 18 11.28 18 14 18 C14 15.69 14 13.38 14 11 C14.99 11 15.98 11 17 11 C16.505 10.2575 16.01 9.515 15.5 8.75 C14 6 14 6 14 2 C14.66 2 15.32 2 16 2 C17.2890625 3.6796875 17.2890625 3.6796875 18.625 5.875 C19.07101563 6.59429687 19.51703125 7.31359375 19.9765625 8.0546875 C21 10 21 10 21 12 C20.34 12 19.68 12 19 12 C19 12.99 19 13.98 19 15 C18.34 15 17.68 15 17 15 C16.67 16.65 16.34 18.3 16 20 C16.66 20.33 17.32 20.66 18 21 C16.88625 21.474375 15.7725 21.94875 14.625 22.4375 C12.73289006 23.25306463 10.84287291 24.07856355 9 25 C8.34786708 27.02463255 8.34786708 27.02463255 8 29 C9.32 29.33 10.64 29.66 12 30 C9.66785852 31.20628008 7.50357861 32.1654738 5 33 C1.65405342 27.81917949 0.43173504 24.15222436 0 18 C-0.66 18 -1.32 18 -2 18 C-2 16.02 -2 14.04 -2 12 C-0.68 11.34 0.64 10.68 2 10 C2 7.36 2 4.72 2 2 C1.34 2 0.68 2 0 2 C0 1.34 0 0.68 0 0 Z " fill="#FAF7F6" transform="translate(37,40)"/>
<path d="M0 0 C2.25 -0.3125 2.25 -0.3125 5 0 C5.86044922 1.11761719 5.86044922 1.11761719 6.73828125 2.2578125 C9.39039262 5.47332576 12.3312754 7.2380867 15.9375 9.1875 C16.54529297 9.52974609 17.15308594 9.87199219 17.77929688 10.22460938 C21.1055506 12.07252811 24.43149543 13.6795856 28 15 C28 15.33 28 15.66 28 16 C26.35 16 24.7 16 23 16 C23.33 16.99 23.66 17.98 24 19 C16.39776578 19.29239362 7.46632132 19.31088088 1 15 C0.61781233 13.34385343 0.28604898 11.67542976 0 10 C-0.66 9.01 -1.32 8.02 -2 7 C-2 5.68 -2 4.36 -2 3 C-1.34 3 -0.68 3 0 3 C0 2.01 0 1.02 0 0 Z " fill="#E2C1BE" transform="translate(5,0)"/>
<path d="M0 0 C0 0.99 0 1.98 0 3 C1.72386555 4.16029412 3.44775976 5.32054569 5.171875 6.48046875 C8.248583 9.03781792 9.86513163 12.19665736 11 16 C10.75 19 10.75 19 10 21 C9.67 20.34 9.34 19.68 9 19 C6.69 19 4.38 19 2 19 C2.33 20.32 2.66 21.64 3 23 C2.01 23 1.02 23 0 23 C0 22.01 0 21.02 0 20 C-0.66 19.67 -1.32 19.34 -2 19 C-1.34 19 -0.68 19 0 19 C0 18.01 0 17.02 0 16 C0.66 16 1.32 16 2 16 C1.6390625 15.44570313 1.278125 14.89140625 0.90625 14.3203125 C0.4421875 13.59585938 -0.021875 12.87140625 -0.5 12.125 C-0.9640625 11.40570313 -1.428125 10.68640625 -1.90625 9.9453125 C-3 8 -3 8 -3 6 C-3.66 6 -4.32 6 -5 6 C-4.4740625 7.423125 -4.4740625 7.423125 -3.9375 8.875 C-3 12 -3 12 -4 14 C-6.5625 14.625 -6.5625 14.625 -9 15 C-9.144375 13.906875 -9.28875 12.81375 -9.4375 11.6875 C-9.88288104 8.06877013 -9.88288104 8.06877013 -11 5 C-7.71303767 4.20046862 -6.28976808 3.90341064 -3 5 C-3.33 3.68 -3.66 2.36 -4 1 C-2 0 -2 0 0 0 Z " fill="#DDB8B4" transform="translate(56,36)"/>
<path d="M0 0 C0.66 0 1.32 0 2 0 C2 0.99 2 1.98 2 3 C3.32 3 4.64 3 6 3 C6 4.65 6 6.3 6 8 C5.34 8 4.68 8 4 8 C4 9.32 4 10.64 4 12 C5.65 12.33 7.3 12.66 9 13 C9 14.98 9 16.96 9 19 C7.02 19 5.04 19 3 19 C3.33 19.66 3.66 20.32 4 21 C1.8125 21.375 1.8125 21.375 -1 21 C-4.29659639 17.62848097 -6.86478692 14.8286577 -7.09765625 9.95703125 C-7.06510417 7.97135417 -7.03255208 5.98567708 -7 4 C-6.34 4.66 -5.68 5.32 -5 6 C-4.21625 5.01 -3.4325 4.02 -2.625 3 C-1.75875 2.01 -0.8925 1.02 0 0 Z " fill="#C2756E" transform="translate(27,47)"/>
<path d="M0 0 C0.33 0.66 0.66 1.32 1 2 C4.63 2 8.26 2 12 2 C12.33 2.99 12.66 3.98 13 5 C10.69 5.33 8.38 5.66 6 6 C6 6.66 6 7.32 6 8 C5.34 8 4.68 8 4 8 C3.67 8.66 3.34 9.32 3 10 C2.01 10 1.02 10 0 10 C-0.33 10.66 -0.66 11.32 -1 12 C-1 11.01 -1 10.02 -1 9 C-1.5775 9.20625 -2.155 9.4125 -2.75 9.625 C-5.51967567 10.08661261 -6.64561267 9.42944945 -9 8 C-9 7.34 -9 6.68 -9 6 C-9.99 5.67 -10.98 5.34 -12 5 C-11.67 3.68 -11.34 2.36 -11 1 C-7.26513121 0.4254048 -3.78706732 0 0 0 Z " fill="#DCB7B3" transform="translate(25,33)"/>
<path d="M0 0 C0 0.66 0 1.32 0 2 C0.99 2 1.98 2 3 2 C2.67 3.65 2.34 5.3 2 7 C0.68 7.33 -0.64 7.66 -2 8 C-1.7215625 8.928125 -1.7215625 8.928125 -1.4375 9.875 C-1 12 -1 12 -2 14 C-1.34 14 -0.68 14 0 14 C0.66 17.63 1.32 21.26 2 25 C1.34 25.33 0.68 25.66 0 26 C0 25.34 0 24.68 0 24 C-1.65 23.67 -3.3 23.34 -5 23 C-5 23.99 -5 24.98 -5 26 C-6.65 25.67 -8.3 25.34 -10 25 C-9.01 24.34 -8.02 23.68 -7 23 C-7.33 22.34 -7.66 21.68 -8 21 C-5.69 21.33 -3.38 21.66 -1 22 C-1.185625 21.38125 -1.37125 20.7625 -1.5625 20.125 C-2 18 -2 18 -1 16 C-2.65 15.67 -4.3 15.34 -6 15 C-6 13.68 -6 12.36 -6 11 C-5.34 11 -4.68 11 -4 11 C-4 9.35 -4 7.7 -4 6 C-5.32 6 -6.64 6 -8 6 C-8 4.35 -8 2.7 -8 1 C-5.10765685 0.17361624 -3.11257569 0 0 0 Z " fill="#BF6F68" transform="translate(37,44)"/>
<path d="M0 0 C1.98 0 3.96 0 6 0 C5.79375 0.61875 5.5875 1.2375 5.375 1.875 C5.25125 2.57625 5.1275 3.2775 5 4 C5.66 4.66 6.32 5.32 7 6 C6.67 6.99 6.34 7.98 6 9 C6.66 9 7.32 9 8 9 C8.33 9.99 8.66 10.98 9 12 C11.00016466 13.20882096 11.00016466 13.20882096 13 14 C11.68 14.99 10.36 15.98 9 17 C9 16.34 9 15.68 9 15 C8.01 15 7.02 15 6 15 C6.33 16.32 6.66 17.64 7 19 C6.34 19 5.68 19 5 19 C5 18.34 5 17.68 5 17 C4.34 17 3.68 17 3 17 C3 17.66 3 18.32 3 19 C2.34 19 1.68 19 1 19 C0.67 19.99 0.34 20.98 0 22 C0 20.68 0 19.36 0 18 C-0.66 18 -1.32 18 -2 18 C-2 16.02 -2 14.04 -2 12 C-0.68 11.34 0.64 10.68 2 10 C2 7.36 2 4.72 2 2 C1.34 2 0.68 2 0 2 C0 1.34 0 0.68 0 0 Z " fill="#E7E3E4" transform="translate(37,40)"/>
<path d="M0 0 C0 4.49960155 -2.54359719 7.18170316 -5.2890625 10.609375 C-7.61428841 12.49928464 -9.62401614 12.76481758 -12.5625 13.25 C-13.53316406 13.42015625 -14.50382812 13.5903125 -15.50390625 13.765625 C-18 14 -18 14 -20 13 C-19.67 11.68 -19.34 10.36 -19 9 C-18.34 9 -17.68 9 -17 9 C-17 8.34 -17 7.68 -17 7 C-18.32 6.67 -19.64 6.34 -21 6 C-19.90300781 5.90203125 -18.80601563 5.8040625 -17.67578125 5.703125 C-16.22126122 5.552981 -14.76683882 5.40188917 -13.3125 5.25 C-12.2306543 5.1571875 -12.2306543 5.1571875 -11.12695312 5.0625 C-6.29830909 4.53333353 -3.60408795 3.49745813 0 0 Z " fill="#DDB9B4" transform="translate(79,12)"/>
<path d="M0 0 C3.96 0.33 7.92 0.66 12 1 C12 1.66 12 2.32 12 3 C10.02 3.99 10.02 3.99 8 5 C8.26676204 6.98491642 8.26676204 6.98491642 9 9 C9.99 9.33 10.98 9.66 12 10 C12 10.66 12 11.32 12 12 C6.39 12 0.78 12 -5 12 C-5 11.01 -5 10.02 -5 9 C-3.0625 8.4375 -3.0625 8.4375 -1 8 C-0.67 8.33 -0.34 8.66 0 9 C0 6.03 0 3.06 0 0 Z " fill="#A91417" transform="translate(81,49)"/>
<path d="M0 0 C1.25541557 3.76624671 0.37061958 5.37188934 -1 9 C-6 9 -11 9 -16 9 C-16 7.02 -16 5.04 -16 3 C-15.34 2.67 -14.68 2.34 -14 2 C-13.67 2.99 -13.34 3.98 -13 5 C-12.67 3.68 -12.34 2.36 -12 1 C-7.95858806 0.36605303 -4.0934693 -0.12404452 0 0 Z M-5 4 C-4 6 -4 6 -4 6 Z " fill="#AD1C1A" transform="translate(123,52)"/>
<path d="M0 0 C2.60508636 0.11391632 5.20845546 0.24065548 7.8125 0.375 C8.55048828 0.4059375 9.28847656 0.436875 10.04882812 0.46875 C13.81893115 0.67346148 15.79650741 0.86433827 19 3 C18 6 18 6 15.875 7.25 C11.52813644 8.38396441 7.90930443 7.61923387 3.6875 6.25 C1.39304796 4.55040589 0.97242344 2.63276214 0 0 Z " fill="#EEDDDA" transform="translate(13,19)"/>
<path d="M0 0 C0.94875 0.350625 1.8975 0.70125 2.875 1.0625 C5.87060172 2.35026777 5.87060172 2.35026777 8 1 C8.99 2.32 9.98 3.64 11 5 C14.59391114 3.66511872 17.75490696 2.03977277 21 0 C21.33 0.99 21.66 1.98 22 3 C18.31521067 6.68478933 15.49050442 7.56381269 10.4921875 8.0390625 C6.40448914 7.97499199 2.64084951 6.84480544 -1 5 C-1.33 4.34 -1.66 3.68 -2 3 C-1.34 3 -0.68 3 0 3 C0 2.01 0 1.02 0 0 Z " fill="#D5A09C" transform="translate(32,67)"/>
<path d="M0 0 C1.32 0.33 2.64 0.66 4 1 C4 1.99 4 2.98 4 4 C5.65 4.33 7.3 4.66 9 5 C9 6.98 9 8.96 9 11 C7.02 11 5.04 11 3 11 C3.33 11.66 3.66 12.32 4 13 C2.35 13 0.7 13 -1 13 C-2.40742022 10.18515955 -1.66652164 8.43063887 -1.0625 5.375 C-0.86785156 4.37210938 -0.67320313 3.36921875 -0.47265625 2.3359375 C-0.31667969 1.56507812 -0.16070313 0.79421875 0 0 Z " fill="#E1BDBB" transform="translate(27,55)"/>
<path d="M0 0 C2.97 0 5.94 0 9 0 C9.33 1.65 9.66 3.3 10 5 C9.175 5.433125 8.35 5.86625 7.5 6.3125 C6.675 6.869375 5.85 7.42625 5 8 C5 8.99 5 9.98 5 11 C2.69 11 0.38 11 -2 11 C-1.51421457 7.87709365 -1.0013988 5.00419641 0 2 C0 1.34 0 0.68 0 0 Z " fill="#C5605F" transform="translate(68,50)"/>
<path d="M0 0 C0.66 0 1.32 0 2 0 C2.33 0.66 2.66 1.32 3 2 C6.63 2 10.26 2 14 2 C14.33 2.99 14.66 3.98 15 5 C12.69 5.33 10.38 5.66 8 6 C8 6.66 8 7.32 8 8 C7.34 8 6.68 8 6 8 C5.67 8.66 5.34 9.32 5 10 C4.01 10 3.02 10 2 10 C1.67 10.66 1.34 11.32 1 12 C1.2475 11.0409375 1.2475 11.0409375 1.5 10.0625 C2.03926667 8.19173179 2.03926667 8.19173179 2 7 C1.484375 6.38125 0.96875 5.7625 0.4375 5.125 C-0.2740625 4.073125 -0.2740625 4.073125 -1 3 C-0.67 2.01 -0.34 1.02 0 0 Z " fill="#F1E3E1" transform="translate(23,33)"/>
<path d="M0 0 C1.62490954 -0.02698189 3.24994633 -0.04638757 4.875 -0.0625 C5.77992188 -0.07410156 6.68484375 -0.08570313 7.6171875 -0.09765625 C10 0 10 0 12 1 C11.125 7.875 11.125 7.875 10 9 C8.00041636 9.04080783 5.99954746 9.04254356 4 9 C4 6.33333333 4 3.66666667 4 1 C2.68 1.33 1.36 1.66 0 2 C0 1.34 0 0.68 0 0 Z " fill="#BA4344" transform="translate(160,52)"/>
<path d="M0 0 C0.99 0 1.98 0 3 0 C3.66 2.31 4.32 4.62 5 7 C6.65 6.67 8.3 6.34 10 6 C10 5.34 10 4.68 10 4 C10.66 4 11.32 4 12 4 C12 4.99 12 5.98 12 7 C11.01 7 10.02 7 9 7 C9 7.66 9 8.32 9 9 C9.66 9.33 10.32 9.66 11 10 C10.34 10 9.68 10 9 10 C9 11.32 9 12.64 9 14 C5.71303767 14.79953138 4.28976808 15.09658936 1 14 C1 13.01 1 12.02 1 11 C2.65 10.67 4.3 10.34 6 10 C5.01 9.34 4.02 8.68 3 8 C3 7.01 3 6.02 3 5 C2.34 5 1.68 5 1 5 C0.67 3.35 0.34 1.7 0 0 Z " fill="#BB665E" transform="translate(42,44)"/>
<path d="M0 0 C2.4375 0.375 2.4375 0.375 5 1 C5.33 1.66 5.66 2.32 6 3 C8.02463255 3.65213292 8.02463255 3.65213292 10 4 C10.28875 5.134375 10.5775 6.26875 10.875 7.4375 C11.24625 8.613125 11.6175 9.78875 12 11 C12.66 11.33 13.32 11.66 14 12 C6.58011696 12.48654971 6.58011696 12.48654971 4.0625 10.375 C2.82156832 7.60115271 2.45561445 4.99403779 2 2 C1.34 1.34 0.68 0.68 0 0 Z " fill="#B8332C" transform="translate(129,49)"/>
<path d="M0 0 C0.66 0 1.32 0 2 0 C3.2890625 1.6796875 3.2890625 1.6796875 4.625 3.875 C5.29402344 4.95394531 5.29402344 4.95394531 5.9765625 6.0546875 C7 8 7 8 7 10 C6.34 10 5.68 10 5 10 C5 10.99 5 11.98 5 13 C4.34 13 3.68 13 3 13 C2.67 14.65 2.34 16.3 2 18 C2.66 18.33 3.32 18.66 4 19 C3.01 19 2.02 19 1 19 C1 18.34 1 17.68 1 17 C0.34 16.67 -0.32 16.34 -1 16 C-0.67 13.69 -0.34 11.38 0 9 C0.99 9 1.98 9 3 9 C2.505 8.2575 2.01 7.515 1.5 6.75 C0 4 0 4 0 0 Z " fill="#EEDEDD" transform="translate(51,42)"/>
<path d="M0 0 C0.99 0.33 1.98 0.66 3 1 C2.525625 1.4125 2.05125 1.825 1.5625 2.25 C-0.16266518 4.182185 -0.56584875 5.48192275 -1 8 C-0.505 7.835 -0.01 7.67 0.5 7.5 C4.03444089 6.79311182 7.39690701 6.93994845 11 7 C11 7.99 11 8.98 11 10 C11.99 9.67 12.98 9.34 14 9 C14 9.66 14 10.32 14 11 C11.69 11.33 9.38 11.66 7 12 C7.99 11.67 8.98 11.34 10 11 C9.67 10.34 9.34 9.68 9 9 C5.37 9 1.74 9 -2 9 C-2.33 8.01 -2.66 7.02 -3 6 C-3.886875 6.33 -4.77375 6.66 -5.6875 7 C-8.70923347 7.91222143 -10.88373706 8.18330958 -14 8 C-10.53899789 5.69266526 -7.06242818 4.44055306 -3.1796875 3 C-0.84001526 2.20208898 -0.84001526 2.20208898 0 0 Z " fill="#C27872" transform="translate(28,27)"/>
<path d="M0 0 C2.97 0 5.94 0 9 0 C9.33 1.32 9.66 2.64 10 4 C9.34 4.66 8.68 5.32 8 6 C7.30251417 7.31747324 6.63040043 8.64914193 6 10 C5.34 9.01 4.68 8.02 4 7 C3.01 7 2.02 7 1 7 C0.67 4.69 0.34 2.38 0 0 Z M5 2 C6 4 6 4 6 4 Z " fill="#AD2025" transform="translate(96,50)"/>
<path d="M0 0 C2.43542455 1.90598443 3.00158196 3.00596275 3.8125 6.0625 C3.874375 7.031875 3.93625 8.00125 4 9 C3.34 9.66 2.68 10.32 2 11 C2 10.34 2 9.68 2 9 C-0.31 9 -2.62 9 -5 9 C-4.67 10.32 -4.34 11.64 -4 13 C-4.99 13 -5.98 13 -7 13 C-7 12.01 -7 11.02 -7 10 C-7.66 9.67 -8.32 9.34 -9 9 C-8.34 9 -7.68 9 -7 9 C-7 8.01 -7 7.02 -7 6 C-4.36 5.67 -1.72 5.34 1 5 C0.67 3.35 0.34 1.7 0 0 Z " fill="#E4C3C0" transform="translate(63,46)"/>
<path d="M0 0 C-0.60698743 4.12751449 -2.03810791 7.3321148 -4 11 C-5.32 11 -6.64 11 -8 11 C-8 7.7 -8 4.4 -8 1 C-5.07175348 0.02391783 -3.04386724 -0.08226668 0 0 Z " fill="#B43438" transform="translate(164,53)"/>
<path d="M0 0 C3.43920545 0.29478904 4.74330685 0.72842609 7.15625 3.28125 C10.58322746 6.55759109 14.06070728 8.31009181 18.3125 10.3125 C19.05306641 10.67150391 19.79363281 11.03050781 20.55664062 11.40039062 C22.36663808 12.27619585 24.18271993 13.13940791 26 14 C22.07136934 15.30484726 19.97071221 14.39233051 16.26171875 12.59765625 C15.55660156 12.23542969 14.85148437 11.87320312 14.125 11.5 C13.40699219 11.13777344 12.68898438 10.77554687 11.94921875 10.40234375 C6.76484161 7.67222221 3.28843703 4.93265554 0 0 Z " fill="#B24F4A" transform="translate(7,1)"/>
<path d="M0 0 C6.39113924 2.50632911 6.39113924 2.50632911 9.3125 4.875 C13.19062435 7.94142391 17.54718714 9.89031779 22 12 C20.40234375 12.69921875 20.40234375 12.69921875 18 13 C14.94140625 11.70703125 14.94140625 11.70703125 11.5625 9.8125 C10.45003906 9.20019531 9.33757813 8.58789062 8.19140625 7.95703125 C5.23444447 6.14376583 2.57417732 4.32397691 0 2 C0 1.34 0 0.68 0 0 Z " fill="#F5EBEB" transform="translate(12,2)"/>
<path d="M0 0 C2.4375 1.1875 2.4375 1.1875 5 3 C5.8125 5.6875 5.8125 5.6875 6 8 C4.02 8.66 2.04 9.32 0 10 C-0.99 7.36 -1.98 4.72 -3 2 C-2.01 2 -1.02 2 0 2 C0 1.34 0 0.68 0 0 Z " fill="#D29C96" transform="translate(58,43)"/>
<path d="M0 0 C0.72445313 0.47050781 1.44890625 0.94101563 2.1953125 1.42578125 C9.40010298 6.06820817 9.40010298 6.06820817 17 10 C12.92320841 11.6852084 10.16924407 10.16939007 6.25 8.5625 C5.07953125 8.08941406 3.9090625 7.61632812 2.703125 7.12890625 C1.81109375 6.75636719 0.9190625 6.38382813 0 6 C0 4.02 0 2.04 0 0 Z " fill="#B04943" transform="translate(5,4)"/>
<path d="M0 0 C3.3 0 6.6 0 10 0 C10 0.66 10 1.32 10 2 C9.01 2.33 8.02 2.66 7 3 C7 4.98 7 6.96 7 9 C5.02 9 3.04 9 1 9 C0.67 7.35 0.34 5.7 0 4 C1.32 3.67 2.64 3.34 4 3 C2.68 2.01 1.36 1.02 0 0 Z " fill="#BD5055" transform="translate(149,52)"/>
<path d="M0 0 C0.66 0.66 1.32 1.32 2 2 C3.32 1.67 4.64 1.34 6 1 C5.67 3.97 5.34 6.94 5 10 C3.68 10.33 2.36 10.66 1 11 C-0.28317892 7.15046324 -0.06643637 4.05261865 0 0 Z " fill="#E9D0CD" transform="translate(20,51)"/>
<path d="M0 0 C3.8718417 1.25573244 6.02838671 2.36808079 8 6 C8.1875 8.75 8.1875 8.75 8 11 C7.01 11.495 7.01 11.495 6 12 C3.5249829 10.88568235 1.32116581 9.41849022 -1 8 C-0.01 7.67 0.98 7.34 2 7 C2.66 7.33 3.32 7.66 4 8 C3.40072174 4.64404172 2.15377564 2.62198774 0 0 Z " fill="#CEA19A" transform="translate(58,29)"/>
<path d="M0 0 C1.65 0 3.3 0 5 0 C4.34 0.66 3.68 1.32 3 2 C5.64 4.31 8.28 6.62 11 9 C10.01 9.33 9.02 9.66 8 10 C6.17578125 9.00390625 6.17578125 9.00390625 4.3125 7.5625 C3.68988281 7.08941406 3.06726563 6.61632812 2.42578125 6.12890625 C1.95527344 5.75636719 1.48476562 5.38382812 1 5 C0.34 5.99 -0.32 6.98 -1 8 C-1.33 6.35 -1.66 4.7 -2 3 C-1.34 3 -0.68 3 0 3 C0 2.01 0 1.02 0 0 Z " fill="#ECDAD8" transform="translate(5,0)"/>
<path d="M0 0 C0.66 0 1.32 0 2 0 C2.66 3.3 3.32 6.6 4 10 C3.01 10.495 3.01 10.495 2 11 C2 10.34 2 9.68 2 9 C0.35 8.67 -1.3 8.34 -3 8 C-3 8.99 -3 9.98 -3 11 C-4.65 10.67 -6.3 10.34 -8 10 C-7.01 9.34 -6.02 8.68 -5 8 C-5.33 7.34 -5.66 6.68 -6 6 C-3.69 6.33 -1.38 6.66 1 7 C0.67 4.69 0.34 2.38 0 0 Z " fill="#B14D47" transform="translate(35,59)"/>
<path d="M0 0 C0 4.03223106 -1.64129026 5.80880447 -4 9 C-4.99 9.495 -4.99 9.495 -6 10 C-6 9.34 -6 8.68 -6 8 C-9.3 7.67 -12.6 7.34 -16 7 C-16 6.67 -16 6.34 -16 6 C-14.64455078 5.72736328 -14.64455078 5.72736328 -13.26171875 5.44921875 C-12.08222656 5.19785156 -10.90273437 4.94648438 -9.6875 4.6875 C-7.92986328 4.32205078 -7.92986328 4.32205078 -6.13671875 3.94921875 C-3.11917264 3.03606345 -1.89419215 2.44125126 0 0 Z " fill="#E4C6C3" transform="translate(79,12)"/>
<path d="M0 0 C-2.93774559 2.51006175 -4.92510106 3.41042509 -8.765625 3.73046875 C-10.09980469 3.85131836 -10.09980469 3.85131836 -11.4609375 3.97460938 C-12.84152344 4.07999023 -12.84152344 4.07999023 -14.25 4.1875 C-15.65378906 4.3102832 -15.65378906 4.3102832 -17.0859375 4.43554688 C-19.38989647 4.63538005 -21.69418616 4.8230939 -24 5 C-21.16353047 2.16353047 -17.9395758 2.07551312 -14.125 1.4375 C-8.96572936 0.59680258 -8.96572936 0.59680258 -3.88623047 -0.60522461 C-2 -1 -2 -1 0 0 Z " fill="#BC716C" transform="translate(78,14)"/>
<path d="M0 0 C4.29 0 8.58 0 13 0 C13.33 0.66 13.66 1.32 14 2 C9.66825536 4.23150482 6.71784771 3.97917594 2 3 C1.34 2.67 0.68 2.34 0 2 C0 1.34 0 0.68 0 0 Z " fill="#C98B85" transform="translate(17,23)"/>
<path d="M0 0 C3.875 1.75 3.875 1.75 5 4 C6.32 4.66 7.64 5.32 9 6 C4.05 6 -0.9 6 -6 6 C-6 5.01 -6 4.02 -6 3 C-4.0625 2.4375 -4.0625 2.4375 -2 2 C-1.67 2.33 -1.34 2.66 -1 3 C-0.67 2.01 -0.34 1.02 0 0 Z " fill="#BC4342" transform="translate(82,55)"/>
<path d="M0 0 C2.97 0 5.94 0 9 0 C9.33 1.65 9.66 3.3 10 5 C7 7 7 7 3 7 C3.33 6.01 3.66 5.02 4 4 C4.66 4 5.32 4 6 4 C6.33 3.34 6.66 2.68 7 2 C5.02 2.33 3.04 2.66 1 3 C0.67 2.01 0.34 1.02 0 0 Z " fill="#B23035" transform="translate(68,50)"/>
<path d="M0 0 C12.63157895 3.42105263 12.63157895 3.42105263 18 7 C11.80481527 6.58411954 6.73310689 5.39748106 1 3 C1.33 3.99 1.66 4.98 2 6 C1.01 5.67 0.02 5.34 -1 5 C-0.67 3.35 -0.34 1.7 0 0 Z " fill="#EDDAD8" transform="translate(7,10)"/>
<path d="M0 0 C0.66 0 1.32 0 2 0 C1.34 2.64 0.68 5.28 0 8 C-2.97 7.505 -2.97 7.505 -6 7 C-5.67 5.02 -5.34 3.04 -5 1 C-3.68 1 -2.36 1 -1 1 C-0.67 0.67 -0.34 0.34 0 0 Z M-4 3 C-3 5 -3 5 -3 5 Z " fill="#A70E11" transform="translate(122,53)"/>
<path d="M0 0 C0.99 0 1.98 0 3 0 C2.55166054 4.9317341 0.13973905 8.3192924 -3 12 C-3.33 12 -3.66 12 -4 12 C-3.53898164 7.29761275 -2.96823597 3.76737643 0 0 Z " fill="#A83F36" transform="translate(25,43)"/>
<path d="M0 0 C0.33 1.98 0.66 3.96 1 6 C0.01 6.33 -0.98 6.66 -2 7 C-2 6.34 -2 5.68 -2 5 C-2.928125 4.7834375 -2.928125 4.7834375 -3.875 4.5625 C-6 4 -6 4 -8 3 C-8 2.34 -8 1.68 -8 1 C-5.10765685 0.17361624 -3.11257569 0 0 0 Z " fill="#EDD9D8" transform="translate(37,44)"/>
<path d="M0 0 C5.28 1.65 10.56 3.3 16 5 C16 5.33 16 5.66 16 6 C5.08189655 6.21408046 5.08189655 6.21408046 2 5 C1.34 3.35 0.68 1.7 0 0 Z " fill="#B55854" transform="translate(7,12)"/>
<path d="M0 0 C0.33 0.99 0.66 1.98 1 3 C-2.13547507 6.13547507 -4.35544115 7.24829923 -8.6875 7.625 C-9.49574219 7.69976562 -10.30398437 7.77453125 -11.13671875 7.8515625 C-12.05904297 7.92503906 -12.05904297 7.92503906 -13 8 C-13.33 7.34 -13.66 6.68 -14 6 C-11.36 6 -8.72 6 -6 6 C-5.62875 5.071875 -5.62875 5.071875 -5.25 4.125 C-3.79371361 1.64931313 -2.62187494 1.04874998 0 0 Z " fill="#E7C9C7" transform="translate(53,67)"/>
<path d="M0 0 C0 0.66 0 1.32 0 2 C-0.99 2 -1.98 2 -3 2 C-3 2.66 -3 3.32 -3 4 C-3.99 3.67 -4.98 3.34 -6 3 C-5.67 2.67 -5.34 2.34 -5 2 C-5.66 1.67 -6.32 1.34 -7 1 C-7.33 1.99 -7.66 2.98 -8 4 C-10.0625 4.6875 -10.0625 4.6875 -12 5 C-12 3.68 -12 2.36 -12 1 C-7.53763531 -0.80619523 -4.68965706 -1.11658501 0 0 Z " fill="#F0E2E0" transform="translate(35,26)"/>
<path d="M0 0 C0 0.99 0 1.98 0 3 C-3.72965139 5.03435531 -5.66905042 6 -10 6 C-9.875 4.125 -9.875 4.125 -9 2 C-5.82254537 0.61849799 -3.46877176 0 0 0 Z " fill="#F0E0DE" transform="translate(61,60)"/>
<path d="M0 0 C-0.99 1.485 -0.99 1.485 -2 3 C-3.32 2.67 -4.64 2.34 -6 2 C-6.33 3.98 -6.66 5.96 -7 8 C-5.35 8 -3.7 8 -2 8 C-2 8.33 -2 8.66 -2 9 C-3.98 9 -5.96 9 -8 9 C-8.33 6.69 -8.66 4.38 -9 2 C-5.86501708 0.14223235 -3.62528568 -0.20140476 0 0 Z " fill="#BF4E4D" transform="translate(123,52)"/>
<path d="M0 0 C1.98 0 3.96 0 6 0 C5.79375 0.61875 5.5875 1.2375 5.375 1.875 C5.25125 2.57625 5.1275 3.2775 5 4 C5.66 4.66 6.32 5.32 7 6 C6.01 6.99 5.02 7.98 4 9 C2 6 2 6 2 2 C1.34 2 0.68 2 0 2 C0 1.34 0 0.68 0 0 Z " fill="#E6C6C4" transform="translate(37,40)"/>
<path d="M0 0 C-4.33664919 3.11696661 -7.80408388 3.55966813 -13 4 C-12.67 2.68 -12.34 1.36 -12 0 C-10.56359829 -0.19573608 -9.12580496 -0.38127816 -7.6875 -0.5625 C-6.88699219 -0.66691406 -6.08648437 -0.77132813 -5.26171875 -0.87890625 C-3 -1 -3 -1 0 0 Z " fill="#F2E8E5" transform="translate(70,25)"/>
<path d="M0 0 C0.99 0.33 1.98 0.66 3 1 C3.33 2.65 3.66 4.3 4 6 C1.69 6 -0.62 6 -3 6 C-3 5.34 -3 4.68 -3 4 C-3.99 3.67 -4.98 3.34 -6 3 C-3 2 -3 2 0 3 C0 2.01 0 1.02 0 0 Z " fill="#BE443E" transform="translate(96,55)"/>
<path d="M0 0 C0.99 0 1.98 0 3 0 C3 0.99 3 1.98 3 3 C4.32 2.34 5.64 1.68 7 1 C7 1.99 7 2.98 7 4 C3.37 4 -0.26 4 -4 4 C-3.67 3.01 -3.34 2.02 -3 1 C-2.01 1.33 -1.02 1.66 0 2 C0 1.34 0 0.68 0 0 Z " fill="#C15658" transform="translate(126,57)"/>
<path d="M0 0 C0.33 0.99 0.66 1.98 1 3 C-5.0546875 3.9765625 -5.0546875 3.9765625 -7 4 C-7.66 3.34 -8.32 2.68 -9 2 C-5.86501708 0.14223235 -3.62528568 -0.20140476 0 0 Z " fill="#FBF6F6" transform="translate(37,35)"/>
<path d="M0 0 C0 1.32 0 2.64 0 4 C-3.28696233 4.79953138 -4.71023192 5.09658936 -8 4 C-8 3.01 -8 2.02 -8 1 C-5.23735711 0.40267181 -2.83967231 0 0 0 Z " fill="#9E9AA7" transform="translate(51,54)"/>
<path d="M0 0 C0.66 0 1.32 0 2 0 C2 0.99 2 1.98 2 3 C3.32 3 4.64 3 6 3 C5.67 4.32 5.34 5.64 5 7 C3.68 6.67 2.36 6.34 1 6 C1 5.34 1 4.68 1 4 C0.34 4 -0.32 4 -1 4 C-0.67 2.68 -0.34 1.36 0 0 Z " fill="#F4E8E7" transform="translate(27,47)"/>
<path d="M0 0 C0.66 0.66 1.32 1.32 2 2 C4.58354218 2.16687448 4.58354218 2.16687448 7 2 C7.33 2.99 7.66 3.98 8 5 C6.865625 5.12375 5.73125 5.2475 4.5625 5.375 C2.7990625 5.684375 2.7990625 5.684375 1 6 C0.67 6.66 0.34 7.32 0 8 C0 5.36 0 2.72 0 0 Z " fill="#BB5F58" transform="translate(28,39)"/>
<path d="M0 0 C-0.33 0.99 -0.66 1.98 -1 3 C-2.65 3 -4.3 3 -6 3 C-5.67 3.66 -5.34 4.32 -5 5 C-5.66 5.66 -6.32 6.32 -7 7 C-7 6.34 -7 5.68 -7 5 C-7.99 4.67 -8.98 4.34 -10 4 C-9.67 2.68 -9.34 1.36 -9 0 C-2.25 -1.125 -2.25 -1.125 0 0 Z " fill="#E2C3C1" transform="translate(23,34)"/>
<path d="M0 0 C3.29485231 3.29485231 3.71211884 4.48986176 4 9 C3.34 9.66 2.68 10.32 2 11 C2 10.34 2 9.68 2 9 C1.01 9 0.02 9 -1 9 C-0.67 6.03 -0.34 3.06 0 0 Z " fill="#D7A9A7" transform="translate(63,46)"/>
<path d="M0 0 C1.65 0 3.3 0 5 0 C5.33 0.99 5.66 1.98 6 3 C6.66 3 7.32 3 8 3 C8 4.32 8 5.64 8 7 C7.34 7 6.68 7 6 7 C5.34 5.35 4.68 3.7 4 2 C2.35 2.33 0.7 2.66 -1 3 C-0.67 2.01 -0.34 1.02 0 0 Z " fill="#AD3F38" transform="translate(31,39)"/>
<path d="M0 0 C0.99 0 1.98 0 3 0 C3 1.32 3 2.64 3 4 C3.66 4 4.32 4 5 4 C4.67 5.32 4.34 6.64 4 8 C3.34 8 2.68 8 2 8 C-0.1519437 4.77208445 -0.20086443 3.71599191 0 0 Z " fill="#AD1C1F" transform="translate(139,52)"/>
<path d="M0 0 C1.32 0.33 2.64 0.66 4 1 C4.28875 2.134375 4.5775 3.26875 4.875 4.4375 C5.24625 5.613125 5.6175 6.78875 6 8 C6.66 8.33 7.32 8.66 8 9 C5.6875 9 5.6875 9 3 8 C1.61706907 5.44481903 0.78208351 2.79133871 0 0 Z " fill="#C5554F" transform="translate(135,52)"/>
<path d="M0 0 C1.32 0.33 2.64 0.66 4 1 C4 1.99 4 2.98 4 4 C5.32 4.33 6.64 4.66 8 5 C5.39417629 5.93065133 4.35801776 6.14917407 1.75 5.0625 C1.1725 4.711875 0.595 4.36125 0 4 C0 2.68 0 1.36 0 0 Z " fill="#F7EEED" transform="translate(27,55)"/>
<path d="M0 0 C6.93 0.495 6.93 0.495 14 1 C10.25631258 2.87184371 9.1599209 3.23999767 5.25 3.125 C4.45078125 3.10695313 3.6515625 3.08890625 2.828125 3.0703125 C2.22484375 3.04710937 1.6215625 3.02390625 1 3 C0.67 2.01 0.34 1.02 0 0 Z " fill="#C8827D" transform="translate(13,19)"/>
<path d="M0 0 C2.31 0 4.62 0 7 0 C7.33 1.32 7.66 2.64 8 4 C7.01 4.495 7.01 4.495 6 5 C6 4.34 6 3.68 6 3 C4.68 3.33 3.36 3.66 2 4 C2 3.34 2 2.68 2 2 C1.34 2 0.68 2 0 2 C0 1.34 0 0.68 0 0 Z " fill="#AF4A44" transform="translate(58,55)"/>
<path d="M0 0 C0.66 1.65 1.32 3.3 2 5 C0.35 5.33 -1.3 5.66 -3 6 C-3.33 4.35 -3.66 2.7 -4 1 C-2 0 -2 0 0 0 Z " fill="#EDDBD9" transform="translate(50,45)"/>
<path d="M0 0 C0.66 0 1.32 0 2 0 C2.33 1.98 2.66 3.96 3 6 C0.69 6.66 -1.62 7.32 -4 8 C-3.67 7.01 -3.34 6.02 -3 5 C-2.34 4.67 -1.68 4.34 -1 4 C-0.34786708 1.97536745 -0.34786708 1.97536745 0 0 Z " fill="#B34E47" transform="translate(54,56)"/>
<path d="M0 0 C-0.99 1.485 -0.99 1.485 -2 3 C-2 2.34 -2 1.68 -2 1 C-2.99 1.495 -2.99 1.495 -4 2 C-4 3.65 -4 5.3 -4 7 C-4.99 7 -5.98 7 -7 7 C-7 5.02 -7 3.04 -7 1 C-4.53721199 -0.231394 -2.7204945 -0.07159196 0 0 Z " fill="#AB120E" transform="translate(154,54)"/>
<path d="M0 0 C0.99 0.33 1.98 0.66 3 1 C3 3.97 3 6.94 3 10 C2.01 10 1.02 10 0 10 C0.875 4.25 0.875 4.25 2 2 C1.34 2 0.68 2 0 2 C0 1.34 0 0.68 0 0 Z " fill="#A50706" transform="translate(129,50)"/>
<path d="M0 0 C2.4375 1.1875 2.4375 1.1875 5 3 C5.8125 5.6875 5.8125 5.6875 6 8 C5.01 8 4.02 8 3 8 C1.92474806 5.34771188 0.90543849 2.71631546 0 0 Z " fill="#B4524D" transform="translate(58,43)"/>
<path d="M0 0 C1.65 0.33 3.3 0.66 5 1 C3 4 3 4 -0.125 4.6875 C-1.07375 4.790625 -2.0225 4.89375 -3 5 C-2.67 4.34 -2.34 3.68 -2 3 C-1.34 3 -0.68 3 0 3 C0 2.01 0 1.02 0 0 Z " fill="#B26660" transform="translate(54,67)"/>
<path d="M0 0 C2.31 0.33 4.62 0.66 7 1 C6.34 1.66 5.68 2.32 5 3 C4.34 2.67 3.68 2.34 3 2 C3 2.99 3 3.98 3 5 C1.35 4.67 -0.3 4.34 -2 4 C-1.01 3.34 -0.02 2.68 1 2 C0.67 1.34 0.34 0.68 0 0 Z " fill="#BC665F" transform="translate(29,65)"/>
<path d="M0 0 C1.65 0.33 3.3 0.66 5 1 C5.33 2.32 5.66 3.64 6 5 C4.68 5 3.36 5 2 5 C2 4.34 2 3.68 2 3 C0.68 3.33 -0.64 3.66 -2 4 C-2 3.34 -2 2.68 -2 2 C-1.34 2 -0.68 2 0 2 C0 1.34 0 0.68 0 0 Z " fill="#CF9994" transform="translate(59,57)"/>
<path d="M0 0 C0.99 0.66 1.98 1.32 3 2 C2.67 2.99 2.34 3.98 2 5 C-0.0625 5.6875 -0.0625 5.6875 -2 6 C-2 4.35 -2 2.7 -2 1 C-1.34 0.67 -0.68 0.34 0 0 Z " fill="#D6A5A0" transform="translate(23,56)"/>
<path d="M0 0 C2.31 0.66 4.62 1.32 7 2 C6.01 2.99 5.02 3.98 4 5 C2.68 4.34 1.36 3.68 0 3 C0 2.01 0 1.02 0 0 Z " fill="#CB6A67" transform="translate(81,49)"/>
<path d="M0 0 C3.82097239 0.53069061 6.06171403 1.49701566 9 4 C8.67 4.66 8.34 5.32 8 6 C2.25 3.375 2.25 3.375 0 0 Z " fill="#D19B99" transform="translate(54,40)"/>
<path d="M0 0 C1.65 0 3.3 0 5 0 C5 0.99 5 1.98 5 3 C3.02 3.33 1.04 3.66 -1 4 C-1.33 3.34 -1.66 2.68 -2 2 C-1.34 1.67 -0.68 1.34 0 1 C0 0.67 0 0.34 0 0 Z " fill="#C98982" transform="translate(46,32)"/>
<path d="M0 0 C3.96 0 7.92 0 12 0 C8.37192801 1.814036 5.96131197 2.56942261 2 3 C1.34 2.67 0.68 2.34 0 2 C0 1.34 0 0.68 0 0 Z " fill="#D6AEA7" transform="translate(59,23)"/>
<path d="M0 0 C0 3.51716303 -0.82445585 4.37121748 -3 7 C-5.97 6.505 -5.97 6.505 -9 6 C-8.443125 5.7525 -7.88625 5.505 -7.3125 5.25 C-4.60028873 3.78393985 -2.36412635 1.97010529 0 0 Z " fill="#EFDFDF" transform="translate(79,12)"/>
<path d="M0 0 C0 2.31 0 4.62 0 7 C-0.99 6.67 -1.98 6.34 -3 6 C-3.33 4.35 -3.66 2.7 -4 1 C-1 0 -1 0 0 0 Z " fill="#A80808" transform="translate(160,53)"/>
<path d="M0 0 C0.99 0 1.98 0 3 0 C2.67 1.65 2.34 3.3 2 5 C1.01 5 0.02 5 -1 5 C-0.67 3.35 -0.34 1.7 0 0 Z " fill="#B34A40" transform="translate(25,43)"/>
<path d="M0 0 C-1.375 2 -1.375 2 -3 4 C-3.66 4 -4.32 4 -5 4 C-5 3.34 -5 2.68 -5 2 C-5.66 1.34 -6.32 0.68 -7 0 C-4.3333581 -1.33332095 -2.83319697 -0.67102033 0 0 Z " fill="#C47B78" transform="translate(22,37)"/>
<path d="M0 0 C0.66 0 1.32 0 2 0 C2.33 1.98 2.66 3.96 3 6 C2.01 6.495 2.01 6.495 1 7 C0.34 5.02 -0.32 3.04 -1 1 C-0.67 0.67 -0.34 0.34 0 0 Z " fill="#FBF8F7" transform="translate(23,33)"/>
<path d="M0 0 C2.31 0.66 4.62 1.32 7 2 C7 2.66 7 3.32 7 4 C4.69 3.67 2.38 3.34 0 3 C0 2.01 0 1.02 0 0 Z " fill="#DDBCB7" transform="translate(37,26)"/>
<path d="M0 0 C3.63 0 7.26 0 11 0 C8 2 8 2 5 3 C2.3125 2.0625 2.3125 2.0625 0 1 C0 0.67 0 0.34 0 0 Z " fill="#EBD5D2" transform="translate(17,24)"/>
<path d="M0 0 C2.475 0.495 2.475 0.495 5 1 C4.67 3.31 4.34 5.62 4 8 C3.67 8 3.34 8 3 8 C2.814375 6.576875 2.814375 6.576875 2.625 5.125 C2.28312823 1.91332809 2.28312823 1.91332809 0 0 Z " fill="#B53B46" transform="translate(129,49)"/>
<path d="M0 0 C2.475 0.495 2.475 0.495 5 1 C5 1.99 5 2.98 5 4 C4.34 4 3.68 4 3 4 C2.67 4.66 2.34 5.32 2 6 C1.34 4.02 0.68 2.04 0 0 Z " fill="#D5A29C" transform="translate(45,41)"/>
<path d="M0 0 C0 0.33 0 0.66 0 1 C-6.625 3 -6.625 3 -10 3 C-6.46873184 -0.69178035 -5.02635024 -1.19045137 0 0 Z " fill="#D0A49F" transform="translate(57,19)"/>
<path d="M0 0 C1.65 1.32 3.3 2.64 5 4 C4.34 4 3.68 4 3 4 C3 4.66 3 5.32 3 6 C2.01 6 1.02 6 0 6 C0 4.02 0 2.04 0 0 Z " fill="#B9615C" transform="translate(5,4)"/>
<path d="M0 0 C0.99 0.33 1.98 0.66 3 1 C3 1.66 3 2.32 3 3 C2.01 2.67 1.02 2.34 0 2 C0 1.34 0 0.68 0 0 Z " fill="#FFFFFF" transform="translate(129,21)"/>
<path d="M0 0 C0.66 0 1.32 0 2 0 C2 0.66 2 1.32 2 2 C1.34 2 0.68 2 0 2 C0 1.34 0 0.68 0 0 Z " fill="#FFFFFF" transform="translate(116,38)"/>
<path d="M0 0 C0.99 0.495 0.99 0.495 2 1 C1.01 1.495 1.01 1.495 0 2 C0 1.34 0 0.68 0 0 Z " fill="#FFFFFF" transform="translate(93,55)"/>
<path d="M0 0 C0.33 0.66 0.66 1.32 1 2 C0.34 1.67 -0.32 1.34 -1 1 C-0.67 0.67 -0.34 0.34 0 0 Z " fill="#FFFFFF" transform="translate(132,44)"/>
<path d="" fill="#FEFCFB" transform="translate(0,0)"/>
</svg>
